<?xml version="1.0" encoding="UTF-8" standalone="no"?>
<!-- Creator: CorelDRAW -->

<svg
   xml:space="preserve"
   width="53.4275mm"
   height="10.7732mm"
   version="1.1"
   style="shape-rendering:geometricPrecision; text-rendering:geometricPrecision; image-rendering:optimizeQuality; fill-rule:evenodd; clip-rule:evenodd"
   viewBox="0 0 74.35 14.99"
   id="svg5"
   sodipodi:docname="logo_mobile1.svg"
   inkscape:version="1.4.2 (f4327f4, 2025-05-13)"
   xmlns:inkscape="http://www.inkscape.org/namespaces/inkscape"
   xmlns:sodipodi="http://sodipodi.sourceforge.net/DTD/sodipodi-0.dtd"
   xmlns="http://www.w3.org/2000/svg"
   xmlns:svg="http://www.w3.org/2000/svg"><sodipodi:namedview
   id="namedview5"
   pagecolor="#ffffff"
   bordercolor="#000000"
   borderopacity="0.25"
   inkscape:showpageshadow="2"
   inkscape:pageopacity="0.0"
   inkscape:pagecheckerboard="0"
   inkscape:deskcolor="#d1d1d1"
   inkscape:document-units="mm"
   inkscape:zoom="4.3975479"
   inkscape:cx="137.69037"
   inkscape:cy="28.766031"
   inkscape:window-width="1920"
   inkscape:window-height="1017"
   inkscape:window-x="-8"
   inkscape:window-y="-8"
   inkscape:window-maximized="1"
   inkscape:current-layer="Layer_x0020_1" />
 <defs
   id="defs2">
  <style
   type="text/css"
   id="style1">
   <![CDATA[
    .fil2 {fill:#D6D6D6;fill-rule:nonzero}
    .fil1 {fill:white;fill-rule:nonzero}
    .fil0 {fill:url(#id0)}
   ]]>
  </style>
  <linearGradient
   id="id0"
   gradientUnits="userSpaceOnUse"
   x1="12.14"
   y1="14.44"
   x2="7.06"
   y2="0.56">
   <stop
   offset="0"
   style="stop-opacity:1; stop-color:#0048FF"
   id="stop1" />
   <stop
   offset="1"
   style="stop-opacity:1; stop-color:#6BB0FF"
   id="stop2" />
  </linearGradient>
 </defs>
 <g
   id="Layer_x0020_1"
   inkscape:label="Layer 1">
  <metadata
   id="CorelCorpID_0Corel-Layer" />
  <path
   class="fil0"
   d="M4.51 14.99l-0.77 0 -0.77 0 -2.26 0c-0.39,0 -0.71,-0.33 -0.71,-0.73l0 -2.6c0,-0.4 0.32,-0.73 0.71,-0.73l2.26 0 0.77 0 4.45 0c0,-2.24 1.65,-4.06 3.67,-4.06l0.35 0 0 -0 3.37 0c0.39,0 0.71,0.33 0.71,0.73l0 2.6c0,0.4 -0.32,0.73 -0.71,0.73l-0.08 0 -0.14 0 -0.15 0 -0.16 0 -6.86 0c0,2.24 -1.65,4.06 -3.67,4.06zm8.04 -14.99l3.03 0c0.39,0 0.71,0.33 0.71,0.73l0 2.6c0,0.4 -0.32,0.73 -0.71,0.73l-0.08 0 -0.14 0 -0.15 0 -0.16 0 -6.86 0c0,2.24 -1.65,4.06 -3.67,4.06l-0.77 0 -0.77 0 -2.26 0c-0.39,0 -0.71,-0.33 -0.71,-0.73l0 -2.6c0,-0.4 0.32,-0.73 0.71,-0.73l2.26 0 0.77 0 4.45 0c0,-2.24 1.65,-4.06 3.67,-4.06l0.35 0 0.34 0zm0 10.93l0.41 0 0.38 0 0.36 0 0.33 0 0.3 0 0.28 0 0.25 0 0.23 0 0.21 0 0.19 0 0.1 0m-3.03 -6.86l0.41 0 0.38 0 0.36 0 0.33 0 0.3 0 0.28 0 0.25 0 0.23 0 0.21 0 0.19 0 0.1 0"
   id="path2" />
  <path
   class="fil1"
   d="M24.74 7.75c0.28,0 0.52,-0.08 0.71,-0.24 0.19,-0.16 0.29,-0.35 0.29,-0.59 0,-0.19 -0.06,-0.34 -0.19,-0.48 -0.12,-0.13 -0.29,-0.25 -0.49,-0.35 -0.2,-0.1 -0.42,-0.21 -0.66,-0.31 -0.23,-0.1 -0.47,-0.21 -0.7,-0.32 -0.23,-0.12 -0.45,-0.26 -0.64,-0.41 -0.2,-0.16 -0.35,-0.35 -0.47,-0.58 -0.12,-0.22 -0.18,-0.49 -0.18,-0.81 0,-0.39 0.1,-0.73 0.29,-1.02 0.19,-0.29 0.46,-0.52 0.81,-0.68 0.35,-0.16 0.75,-0.24 1.22,-0.24 0.74,0 1.45,0.19 2.12,0.56l-0.58 1.2c-0.3,-0.19 -0.59,-0.32 -0.86,-0.39 -0.27,-0.07 -0.5,-0.1 -0.68,-0.1 -0.27,0 -0.49,0.06 -0.65,0.17 -0.16,0.12 -0.25,0.27 -0.25,0.47 0,0.16 0.06,0.31 0.17,0.43 0.12,0.12 0.27,0.22 0.46,0.32 0.19,0.09 0.4,0.19 0.63,0.28 0.24,0.1 0.47,0.21 0.72,0.33 0.24,0.12 0.46,0.26 0.67,0.42 0.21,0.17 0.37,0.37 0.49,0.6 0.12,0.23 0.19,0.52 0.19,0.85 0,0.42 -0.11,0.79 -0.32,1.12 -0.21,0.33 -0.5,0.58 -0.87,0.77 -0.37,0.19 -0.8,0.28 -1.28,0.28 -0.45,0 -0.89,-0.08 -1.34,-0.24 -0.45,-0.16 -0.86,-0.39 -1.23,-0.68l0.66 -1.14c0.17,0.15 0.37,0.29 0.59,0.41 0.22,0.12 0.45,0.22 0.69,0.28 0.24,0.07 0.46,0.1 0.66,0.1zm2.89 -3.55l0.76 0 0 -1.17 1.32 0 0 1.17 1.12 0 0 1.17 -1.12 0 0 1.72c0,0.22 0.07,0.39 0.21,0.52 0.14,0.13 0.32,0.19 0.53,0.19 0.16,0 0.32,-0.04 0.49,-0.11l0 1.1c-0.29,0.11 -0.58,0.17 -0.86,0.17 -0.55,0 -0.96,-0.15 -1.26,-0.45 -0.29,-0.3 -0.44,-0.72 -0.44,-1.28l0 -1.88 -0.76 0 0 -1.17zm4.18 4.68l0 -4.68 1.16 0 0.06 0.67c0.33,-0.51 0.79,-0.76 1.38,-0.76 0.2,0 0.4,0.03 0.62,0.09l-0.18 1.16c-0.18,-0.06 -0.35,-0.09 -0.53,-0.09 -0.35,0 -0.64,0.13 -0.86,0.4 -0.22,0.27 -0.33,0.64 -0.33,1.14l0 2.06 -1.32 0zm4.65 -1.94c0.08,0.26 0.24,0.47 0.46,0.63 0.22,0.16 0.48,0.24 0.78,0.24 0.32,0 0.58,-0.05 0.79,-0.16 0.21,-0.11 0.4,-0.24 0.57,-0.41l0.8 0.97c-0.36,0.28 -0.71,0.48 -1.06,0.58 -0.35,0.11 -0.68,0.16 -1,0.16 -0.51,0 -0.96,-0.11 -1.35,-0.32 -0.39,-0.21 -0.69,-0.5 -0.91,-0.87 -0.22,-0.37 -0.33,-0.79 -0.33,-1.26 0,-0.46 0.11,-0.88 0.32,-1.24 0.21,-0.36 0.5,-0.65 0.87,-0.86 0.37,-0.21 0.78,-0.31 1.25,-0.31 0.46,0 0.87,0.1 1.23,0.31 0.36,0.21 0.64,0.5 0.85,0.86 0.21,0.37 0.31,0.78 0.31,1.25l0 0.41 -3.58 0zm2.22 -0.75c-0.06,-0.27 -0.2,-0.49 -0.4,-0.66 -0.2,-0.17 -0.44,-0.25 -0.72,-0.25 -0.28,0 -0.53,0.09 -0.73,0.26 -0.21,0.17 -0.34,0.39 -0.41,0.66l2.25 0zm2.09 1.4c0,-0.31 0.09,-0.59 0.27,-0.84 0.18,-0.25 0.42,-0.44 0.73,-0.58 0.31,-0.14 0.66,-0.22 1.06,-0.22 0.13,0 0.26,0.01 0.4,0.02 0.14,0.01 0.28,0.04 0.42,0.06 -0.1,-0.51 -0.46,-0.76 -1.09,-0.76 -0.37,0 -0.74,0.14 -1.12,0.43l-0.45 -1.14c0.32,-0.16 0.63,-0.27 0.94,-0.35 0.31,-0.08 0.6,-0.11 0.88,-0.11 0.44,0 0.83,0.08 1.16,0.25 0.33,0.17 0.58,0.41 0.76,0.72 0.18,0.31 0.27,0.67 0.27,1.09l0 2.7 -1.11 0 -0.09 -0.5c-0.17,0.19 -0.38,0.33 -0.63,0.44 -0.25,0.11 -0.52,0.16 -0.81,0.16 -0.47,0 -0.85,-0.13 -1.14,-0.38 -0.3,-0.26 -0.44,-0.59 -0.44,-1zm1.32 -0.31c0,0.16 0.06,0.28 0.18,0.38 0.12,0.09 0.27,0.14 0.47,0.14 0.26,0 0.48,-0.08 0.66,-0.24 0.18,-0.16 0.27,-0.36 0.27,-0.6l0 -0.09c-0.11,-0.04 -0.24,-0.07 -0.37,-0.09 -0.13,-0.02 -0.26,-0.03 -0.38,-0.03 -0.26,0 -0.46,0.05 -0.61,0.14 -0.15,0.09 -0.22,0.23 -0.22,0.4zm5.33 1.59l-1.32 0 0 -4.68 1.25 0 0.03 0.5c0.32,-0.39 0.77,-0.59 1.32,-0.59 0.71,0 1.21,0.31 1.5,0.92 0.15,-0.3 0.36,-0.52 0.62,-0.68 0.26,-0.16 0.57,-0.24 0.92,-0.24 0.56,0 0.99,0.2 1.3,0.6 0.31,0.4 0.46,0.95 0.46,1.66l0 2.52 -1.32 0 0 -2.52c0,-0.36 -0.08,-0.63 -0.25,-0.81 -0.17,-0.18 -0.37,-0.27 -0.6,-0.27 -0.24,0 -0.44,0.09 -0.61,0.28 -0.17,0.19 -0.25,0.47 -0.25,0.84l0 2.48 -1.32 0 0 -2.52c0,-0.36 -0.08,-0.63 -0.25,-0.81 -0.17,-0.18 -0.37,-0.27 -0.61,-0.27 -0.24,0 -0.44,0.09 -0.61,0.28 -0.17,0.19 -0.25,0.47 -0.25,0.84l0 2.48z"
   id="path3" />
  <path
   class="fil1"
   d="M54.69 1.86l3.95 0 0 0.75 -3.15 0 0 2.33 2.97 0 0 0.75 -2.97 0 0 3.19 -0.8 0 0 -7.01zm6.06 -0.19l0 7.2 -0.78 0 0 -7.2 0.78 0zm1.15 4.86c0,-0.45 0.1,-0.85 0.31,-1.21 0.21,-0.35 0.49,-0.63 0.85,-0.83 0.36,-0.2 0.77,-0.3 1.23,-0.3 0.46,0 0.87,0.1 1.23,0.3 0.36,0.2 0.64,0.48 0.85,0.83 0.21,0.35 0.31,0.75 0.31,1.21 0,0.45 -0.1,0.85 -0.31,1.21 -0.21,0.35 -0.49,0.63 -0.85,0.83 -0.36,0.2 -0.77,0.3 -1.23,0.3 -0.46,0 -0.87,-0.1 -1.23,-0.3 -0.36,-0.2 -0.64,-0.48 -0.85,-0.83 -0.21,-0.35 -0.31,-0.75 -0.31,-1.21zm0.78 0c0,0.31 0.07,0.6 0.21,0.84 0.14,0.25 0.33,0.45 0.57,0.59 0.24,0.14 0.52,0.21 0.83,0.21 0.31,0 0.58,-0.07 0.83,-0.21 0.24,-0.14 0.43,-0.34 0.57,-0.59 0.14,-0.25 0.21,-0.53 0.21,-0.84 0,-0.32 -0.07,-0.6 -0.21,-0.85 -0.14,-0.25 -0.33,-0.44 -0.57,-0.58 -0.24,-0.14 -0.52,-0.21 -0.83,-0.21 -0.31,0 -0.59,0.07 -0.83,0.21 -0.24,0.14 -0.43,0.34 -0.57,0.58 -0.14,0.25 -0.21,0.53 -0.21,0.85zm4.69 -2.34l0.8 0 1.14 3.49 1.14 -3.49 0.81 0 1.16 3.53 1.15 -3.53 0.78 0 -1.54 4.67 -0.78 0 0.01 -0.03 -1.19 -3.54 -1.17 3.51 0.02 0.06 -0.8 0 -1.54 -4.67z"
   id="path4" />
  
 </g>
</svg>
